#N canvas 1 81 1265 719 10;
#X obj 21 36 tgl 15 0 empty empty empty 17 7 0 10 -262144 -1 -1 1 1
;
#X msg 53 36 create;
#X msg 106 37 destroy;
#X obj 53 78 gemwin;
#X msg 79 9 dimen 800 600;
#X obj 26 133 gemhead 55;
#X obj 65 181 r x;
#X obj 101 181 r y;
#X obj 49 219 * 10.66;
#X obj 103 217 * 8;
#X obj 47 248 - 5.33;
#X obj 100 245 - 4;
#X obj 25 286 translateXYZ;
#X obj 33 331 rectangle 0.2 0.2;
#X msg 121 298 draw line;
#X obj 207 16 gemhead 50;
#X obj 214 54 pix_video;
#X obj 219 139 pix_data;
#X obj 169 100 tgl 15 0 empty empty empty 17 7 0 10 -262144 -1 -1 1
1;
#X obj 140 126 metro 50;
#X obj 242 78 hsl 128 15 0 1 0 0 empty empty empty -2 -8 0 10 -262144
-1 -1 6451 1;
#X obj 257 100 s x;
#X obj 294 106 hsl 128 15 0 1 0 0 empty empty empty -2 -8 0 10 -262144
-1 -1 8769 1;
#X obj 309 132 s y;
#X obj 271 182 spigot;
#X obj 324 156 tgl 15 0 empty empty empty 17 7 0 10 -262144 -1 -1 0
1;
#X obj 274 219 unpack f f f;
#X floatatom 262 264 5 0 0 0 - - -;
#X floatatom 306 261 5 0 0 0 - - -;
#X floatatom 355 264 5 0 0 0 - - -;
#X obj 279 295 pack f f f;
#X obj 251 338 colourChange;
#X obj 365 311 hsl 128 15 0 2 0 0 empty empty empty -2 -8 0 10 -262144
-1 -1 1100 1;
#X obj 255 374 tgl 15 0 empty empty empty 17 7 0 10 -262144 -1 -1 0
1;
#X obj 259 402 change;
#X obj 260 434 s text;
#X obj 559 26 r text;
#X obj 556 59 gemhead 60;
#X obj 551 109 color;
#X obj 342 30 pix_texture;
#X obj 339 56 rectangle 5.33 4;
#X floatatom 376 353 5 0 0 0 - - -;
#X obj 510 40 tgl 15 0 empty empty empty 17 7 0 10 -262144 -1 -1 0
1;
#X obj 549 158 triangle;
#X floatatom 404 196 5 0 0 0 - - -;
#X floatatom 449 162 5 0 0 0 - - -;
#X floatatom 582 331 5 0 0 0 - - -;
#X obj 592 292 / 126;
#X obj 691 284 / 126;
#X floatatom 741 333 5 0 0 0 - - -;
#X obj 651 127 hsl 128 15 0 127 0 0 empty empty empty -2 -8 0 10 -262144
-1 -1 400 1;
#X obj 751 294 / 31.5;
#X obj 655 244 nanokontrol_d;
#X obj 842 266 tgl 15 0 empty empty empty 17 7 0 10 -262144 -1 -1 0
1;
#X connect 0 0 3 0;
#X connect 1 0 3 0;
#X connect 2 0 3 0;
#X connect 4 0 3 0;
#X connect 5 0 12 0;
#X connect 6 0 8 0;
#X connect 7 0 9 0;
#X connect 8 0 10 0;
#X connect 9 0 11 0;
#X connect 10 0 12 1;
#X connect 11 0 12 2;
#X connect 12 0 13 0;
#X connect 14 0 13 0;
#X connect 15 0 16 0;
#X connect 16 0 17 1;
#X connect 16 0 39 0;
#X connect 17 1 24 0;
#X connect 17 1 31 0;
#X connect 18 0 19 0;
#X connect 19 0 17 0;
#X connect 20 0 21 0;
#X connect 20 0 17 2;
#X connect 22 0 23 0;
#X connect 22 0 17 3;
#X connect 24 0 26 0;
#X connect 25 0 24 1;
#X connect 26 0 27 0;
#X connect 26 1 28 0;
#X connect 26 2 29 0;
#X connect 27 0 30 0;
#X connect 28 0 30 1;
#X connect 29 0 30 2;
#X connect 30 0 31 1;
#X connect 30 0 38 1;
#X connect 31 0 33 0;
#X connect 32 0 31 2;
#X connect 32 0 41 0;
#X connect 33 0 34 0;
#X connect 34 0 35 0;
#X connect 36 0 37 0;
#X connect 36 0 42 0;
#X connect 37 0 38 0;
#X connect 38 0 43 0;
#X connect 39 0 40 0;
#X connect 44 0 48 0;
#X connect 45 0 47 0;
#X connect 46 0 20 0;
#X connect 47 0 46 0;
#X connect 48 0 22 0;
#X connect 49 0 50 0;
#X connect 50 0 43 1;
#X connect 51 0 49 0;
#X connect 52 0 44 0;
#X connect 52 1 45 0;
#X connect 52 2 51 0;
#X connect 52 3 53 0;
#X connect 53 0 25 0;
