#N canvas -1 81 1265 719 10;
#X obj 82 354 ctlin;
#X floatatom 81 433 5 0 0 0 - - -;
#X floatatom 124 433 5 0 0 0 - - -;
#X obj 757 361 route 2 3 4 5 6 8 9 12 13;
#X obj 743 417 route 14 15 16 17 18 19 20 21 22;
#X obj 877 602 route 23 24 25 26 27 28 29 30 31;
#X obj 856 469 route 33 34 35 36 37 38 39 40 41;
#X obj 409 562 route 44 45 46 47 48 49;
#X obj 218 482 pack f f;
#X obj 662 391 s s2;
#X obj 702 391 s s3;
#X obj 742 391 s s4;
#X obj 782 391 s s5;
#X obj 822 391 s s6;
#X obj 862 391 s s8;
#X obj 902 391 s s9;
#X obj 942 391 s s12;
#X obj 982 391 s s13;
#X obj 690 446 s k14;
#X obj 730 446 s k15;
#X obj 767 446 s k16;
#X obj 805 446 s k17;
#X obj 843 446 s k18;
#X obj 881 446 s k19;
#X obj 919 446 s k20;
#X obj 957 446 s k21;
#X obj 994 446 s k22;
#X obj 777 575 s b33;
#X obj 819 575 s b34;
#X obj 858 575 s b35;
#X obj 896 575 s b36;
#X obj 934 575 s b37;
#X obj 973 575 s b38;
#X obj 1010 575 s b39;
#X obj 1047 575 s b40;
#X obj 1086 575 s b41;
#X obj 658 501 sel 0 127;
#X msg 657 521 0;
#X msg 684 521 1;
#X obj 728 501 sel 0 127;
#X msg 727 521 0;
#X msg 754 521 1;
#X obj 798 501 sel 0 127;
#X msg 797 521 0;
#X msg 824 521 1;
#X obj 868 501 sel 0 127;
#X msg 867 521 0;
#X msg 894 521 1;
#X obj 938 501 sel 0 127;
#X msg 937 521 0;
#X msg 964 521 1;
#X obj 1008 501 sel 0 127;
#X msg 1007 521 0;
#X msg 1034 521 1;
#X obj 1078 501 sel 0 127;
#X msg 1077 521 0;
#X msg 1104 521 1;
#X obj 1148 501 sel 0 127;
#X msg 1147 521 0;
#X msg 1174 521 1;
#X obj 1218 501 sel 0 127;
#X msg 1217 521 0;
#X msg 1244 521 1;
#X obj 839 689 s b23;
#X obj 878 689 s b24;
#X obj 915 689 s b25;
#X obj 952 689 s b26;
#X obj 989 689 s b27;
#X obj 1025 689 s b28;
#X obj 1063 689 s b29;
#X obj 1099 689 s b30;
#X obj 1135 689 s b31;
#X obj 788 635 sel 127;
#X obj 788 662 t b;
#X obj 838 635 sel 127;
#X obj 838 662 t b;
#X obj 888 635 sel 127;
#X obj 888 662 t b;
#X obj 938 635 sel 127;
#X obj 938 662 t b;
#X obj 988 635 sel 127;
#X obj 988 662 t b;
#X obj 1038 635 sel 127;
#X obj 1038 662 t b;
#X obj 1088 635 sel 127;
#X obj 1088 662 t b;
#X obj 1138 635 sel 127;
#X obj 1138 662 t b;
#X obj 1188 635 sel 127;
#X obj 1188 662 t b;
#X obj 481 674 s b47;
#X obj 407 674 s b45;
#X obj 370 674 s b44;
#X obj 444 674 s b46;
#X obj 518 674 s b48;
#X obj 556 674 s b49;
#X obj 338 595 sel 127;
#X obj 338 622 t b;
#X obj 388 595 sel 127;
#X obj 388 622 t b;
#X obj 438 595 sel 127;
#X obj 438 622 t b;
#X obj 488 595 sel 127;
#X obj 488 622 t b;
#X obj 538 595 sel 127;
#X obj 538 622 t b;
#X obj 588 595 sel 127;
#X obj 588 622 t b;
#X obj 355 365 outlet;
#X obj 418 365 outlet;
#X obj 308 360 r s2;
#X obj 408 283 r s3;
#X obj 473 365 outlet;
#X obj 463 283 r s4;
#X obj 527 363 outlet;
#X obj 517 281 r b33;
#X connect 0 0 1 0;
#X connect 0 0 8 1;
#X connect 0 1 2 0;
#X connect 0 1 8 0;
#X connect 3 0 9 0;
#X connect 3 1 10 0;
#X connect 3 2 11 0;
#X connect 3 3 12 0;
#X connect 3 4 13 0;
#X connect 3 5 14 0;
#X connect 3 6 15 0;
#X connect 3 7 16 0;
#X connect 3 8 17 0;
#X connect 4 0 18 0;
#X connect 4 1 19 0;
#X connect 4 2 20 0;
#X connect 4 3 21 0;
#X connect 4 4 22 0;
#X connect 4 5 23 0;
#X connect 4 6 24 0;
#X connect 4 7 25 0;
#X connect 4 8 26 0;
#X connect 5 0 72 0;
#X connect 5 1 74 0;
#X connect 5 2 76 0;
#X connect 5 3 78 0;
#X connect 5 4 80 0;
#X connect 5 5 82 0;
#X connect 5 6 84 0;
#X connect 5 7 86 0;
#X connect 5 8 88 0;
#X connect 6 0 36 0;
#X connect 6 1 39 0;
#X connect 6 2 42 0;
#X connect 6 3 45 0;
#X connect 6 4 48 0;
#X connect 6 5 51 0;
#X connect 6 6 54 0;
#X connect 6 7 57 0;
#X connect 6 8 60 0;
#X connect 7 0 96 0;
#X connect 7 1 98 0;
#X connect 7 2 100 0;
#X connect 7 3 102 0;
#X connect 7 4 104 0;
#X connect 7 5 106 0;
#X connect 8 0 3 0;
#X connect 8 0 4 0;
#X connect 8 0 6 0;
#X connect 8 0 5 0;
#X connect 8 0 7 0;
#X connect 36 0 38 0;
#X connect 36 1 37 0;
#X connect 37 0 27 0;
#X connect 38 0 27 0;
#X connect 39 0 41 0;
#X connect 39 1 40 0;
#X connect 40 0 28 0;
#X connect 41 0 28 0;
#X connect 42 0 44 0;
#X connect 42 1 43 0;
#X connect 43 0 29 0;
#X connect 44 0 29 0;
#X connect 45 0 47 0;
#X connect 45 1 46 0;
#X connect 46 0 30 0;
#X connect 47 0 30 0;
#X connect 48 0 50 0;
#X connect 48 1 49 0;
#X connect 49 0 31 0;
#X connect 50 0 31 0;
#X connect 51 0 53 0;
#X connect 51 1 52 0;
#X connect 52 0 32 0;
#X connect 53 0 32 0;
#X connect 54 0 56 0;
#X connect 54 1 55 0;
#X connect 55 0 33 0;
#X connect 56 0 33 0;
#X connect 57 0 59 0;
#X connect 57 1 58 0;
#X connect 58 0 34 0;
#X connect 59 0 34 0;
#X connect 60 0 62 0;
#X connect 60 1 61 0;
#X connect 61 0 35 0;
#X connect 62 0 35 0;
#X connect 72 0 73 0;
#X connect 73 0 63 0;
#X connect 74 0 75 0;
#X connect 75 0 64 0;
#X connect 76 0 77 0;
#X connect 77 0 65 0;
#X connect 78 0 79 0;
#X connect 79 0 66 0;
#X connect 80 0 81 0;
#X connect 81 0 67 0;
#X connect 82 0 83 0;
#X connect 83 0 68 0;
#X connect 84 0 85 0;
#X connect 85 0 69 0;
#X connect 86 0 87 0;
#X connect 87 0 70 0;
#X connect 88 0 89 0;
#X connect 89 0 71 0;
#X connect 96 0 97 0;
#X connect 97 0 92 0;
#X connect 98 0 99 0;
#X connect 99 0 91 0;
#X connect 100 0 101 0;
#X connect 101 0 93 0;
#X connect 102 0 103 0;
#X connect 103 0 90 0;
#X connect 104 0 105 0;
#X connect 105 0 94 0;
#X connect 106 0 107 0;
#X connect 107 0 95 0;
#X connect 110 0 108 0;
#X connect 111 0 109 0;
#X connect 113 0 112 0;
#X connect 115 0 114 0;
#X coords 0 719 1 718 700 230 0;
